<svg xmlns="http://www.w3.org/2000/svg" fill="none" viewBox="0 0 1163 1163">
  <path fill="#333" fill-rule="evenodd" d="M962.5 213.5 695 52 119 399l51 271 523 441 280-233 14-130-293.5-209 258-184.5 11-141Z" clip-rule="evenodd"/>
  <path fill="#fff" fill-rule="evenodd" d="M676.4 21.2a36 36 0 0 1 37.2 0l267.5 161.5a36 36 0 0 1 17.3 33.6l-11 141a36 36 0 0 1-15 26.5L755.5 539 1008 718.7a36 36 0 0 1 14.9 33.2l-14 130a36 36 0 0 1-12.8 23.8l-280 233a36 36 0 0 1-46.2-.2l-523-441a36 36 0 0 1-12.2-20.8l-51-271a36 36 0 0 1 16.8-37.5l576-347ZM693.5 539l258-184.5 11-141L695 52 119 399l51 271 523 441 280-233 14-130-293.5-209Z" clip-rule="evenodd"/>
  <path fill="#333" d="m119 399 265 206 16 144 293 237v125L170 670l-51-271Z"/>
  <path fill="#333" fill-rule="evenodd" d="M112.7 388.8a12 12 0 0 1 13.7.7l265 206c2.5 2 4.2 5 4.5 8.2l15.5 139 289.1 234a12 12 0 0 1 4.5 9.3v125a12 12 0 0 1-19.7 9.2l-523-441a12 12 0 0 1-4-7l-51-271a12 12 0 0 1 5.4-12.4Zm24 39.1L181 663.6l500 421.6v-93.5L392.5 758.3a12 12 0 0 1-4.4-8l-15.5-139-236-183.4Z" clip-rule="evenodd"/>
  <path fill="#333" d="M693 986.5 987 748l-14 130-280 233V986.5Z"/>
  <path fill="#333" fill-rule="evenodd" d="M992.7 737.5a12 12 0 0 1 6.2 11.8l-14 130a12 12 0 0 1-4.2 8l-280 233a12 12 0 0 1-19.7-9.3V986.5c0-3.6 1.6-7 4.4-9.3l294-238.5c3.8-3 9-3.6 13.3-1.2ZM705 992.2v93.2l256.6-213.5 10.4-96.2-267 216.5Z" clip-rule="evenodd"/>
  <path fill="#fff" d="M693 986.5 987 748 693.5 539 400 749l293 237.5Z"/>
  <path fill="#333" fill-rule="evenodd" d="M686.5 529.2c4.2-3 9.8-3 14 0l293.5 209a12 12 0 0 1 .6 19.1l-294 238.5a12 12 0 0 1-15.2 0l-293-237.5a12 12 0 0 1 .6-19l293.5-210Zm7 24.5L419.8 749.6 693 971l274.2-222.4-273.7-194.9Z" clip-rule="evenodd"/>
  <path fill="#fff" d="m384 605 578.5-391.5L695 52 119 399l265 206Z"/>
  <path fill="#333" fill-rule="evenodd" d="M688.8 41.7a12 12 0 0 1 12.4 0l267.5 161.5a12 12 0 0 1 .5 20.2L390.7 615a12 12 0 0 1-14-.4l-265-206a12 12 0 0 1 1.1-19.8l576-347ZM140.2 400.3l244.3 189.9L940.2 214 695 66 140.2 400.2Z" clip-rule="evenodd"/>
  <path fill="#333" d="m384 605 578.5-391.5-11 141L400 749l-16-144Z"/>
  <path fill="#333" fill-rule="evenodd" d="M968.5 203.1a12 12 0 0 1 6 11.3l-11 141a12 12 0 0 1-5 8.9L407 758.8a12 12 0 0 1-19-8.5l-16-144a12 12 0 0 1 5.3-11.2l578.5-391.5a12 12 0 0 1 12.7-.5ZM396.7 611l13 116.4L940 348l8.6-110.6-551.9 373.5Z" clip-rule="evenodd"/>
</svg>
